<svg width="156" height="56" viewBox="0 0 156 56" fill="none" xmlns="http://www.w3.org/2000/svg">
<path fill-rule="evenodd" clip-rule="evenodd" d="M51.2258 22.0274L51.7554 19.0205C51.7554 19.0205 47.6771 17.6996 44.3578 20.1493V32.178H47.8826V22.4052C49.2872 21.2764 51.2258 22.0274 51.2258 22.0274Z" fill="#00425F"/>
<mask id="mask0_1791_33168" style="mask-type:alpha" maskUnits="userSpaceOnUse" x="44" y="18" width="8" height="15">
<path d="M44.3578 20.1491C45.9548 18.9708 47.7277 18.6648 49.1374 18.6651C50.6576 18.6651 51.7556 19.0206 51.7556 19.0206L51.2258 22.0275C51.2258 22.0275 49.2872 21.2765 47.8826 22.405V32.1779H44.3578V20.1491Z" fill="white"/>
</mask>
<g mask="url(#mask0_1791_33168)">
<path fill-rule="evenodd" clip-rule="evenodd" d="M-170.209 69.4595L326.176 69.4595L326.176 -631.805H-170.209L-170.209 69.4595Z" fill="#00425F"/>
</g>
<mask id="mask1_1791_33168" style="mask-type:alpha" maskUnits="userSpaceOnUse" x="44" y="18" width="8" height="15">
<path d="M44.3578 20.1491C45.9548 18.9708 47.7275 18.6651 49.1374 18.6651C50.6576 18.6651 51.7556 19.0206 51.7556 19.0206L51.2258 22.0275C51.2258 22.0275 49.2872 21.2765 47.8826 22.405V32.1779H44.3578V20.1491Z" fill="white"/>
</mask>
<g mask="url(#mask1_1791_33168)">
<path fill-rule="evenodd" clip-rule="evenodd" d="M38.4486 38.071H57.6651V12.772H38.4486V38.071Z" fill="#00425F"/>
</g>
<path fill-rule="evenodd" clip-rule="evenodd" d="M20.8378 15.5912L24.361 14.9292V18.8414H27.8473V21.9699H24.361V26.6355C24.361 27.4303 24.4898 28.0613 24.7534 28.5279C25.0139 29.0016 25.5364 29.2364 26.321 29.2364C26.7046 29.2364 27.0899 29.1997 27.4963 29.1219C27.8913 29.0427 28.2595 28.941 28.591 28.8079L29.0895 31.7384C28.663 31.9208 28.1916 32.0792 27.672 32.2135C27.1507 32.3464 26.5106 32.4157 25.7543 32.4157C24.793 32.4157 23.9985 32.2759 23.3667 31.9986C22.7381 31.7214 22.2327 31.3324 21.856 30.8359C21.4792 30.3438 21.2143 29.74 21.0656 29.0328C20.9142 28.3271 20.8378 27.5476 20.8378 26.6879V15.5912Z" fill="#00425F"/>
<mask id="mask2_1791_33168" style="mask-type:alpha" maskUnits="userSpaceOnUse" x="20" y="14" width="10" height="19">
<path d="M20.838 15.5912L24.3612 14.9292V18.8414H27.8476V21.9699H24.3612V26.6355C24.3612 27.4306 24.4901 28.0613 24.7534 28.5279C25.0139 29.0018 25.5364 29.2364 26.321 29.2364C26.7046 29.2364 27.0897 29.1997 27.4964 29.1219C27.8913 29.0427 28.2598 28.941 28.5912 28.8081L29.0895 31.7384C28.6633 31.9211 28.1917 32.0794 27.672 32.2137C27.1507 32.3466 26.5106 32.4157 25.7543 32.4157C24.7928 32.4157 23.9985 32.2759 23.3669 31.9986C22.7382 31.7214 22.2325 31.3324 21.856 30.8361C21.4792 30.3438 21.2145 29.74 21.0659 29.0328C20.9142 28.3271 20.838 27.5478 20.838 26.6879V15.5912Z" fill="white"/>
</mask>
<g mask="url(#mask2_1791_33168)">
<path fill-rule="evenodd" clip-rule="evenodd" d="M-170.209 69.4595L326.176 69.4595L326.176 -631.805H-170.209L-170.209 69.4595Z" fill="#00425F"/>
<path fill-rule="evenodd" clip-rule="evenodd" d="M14.9283 38.3087H34.9986V9.03606H14.9283L14.9283 38.3087Z" fill="#00425F"/>
</g>
<path fill-rule="evenodd" clip-rule="evenodd" d="M56.9743 29.4842C57.6188 29.4842 58.0747 29.4133 58.3454 29.2804C58.6142 29.1462 58.7445 28.8831 58.7445 28.4985C58.7445 28.1943 58.5746 27.9299 58.2261 27.705C57.8779 27.476 57.3539 27.2214 56.6431 26.9313C56.0921 26.7121 55.5909 26.4861 55.1391 26.2526C54.6931 26.0151 54.3107 25.7378 53.995 25.4082C53.6804 25.0803 53.4369 24.6869 53.2612 24.2288C53.0856 23.7789 53.0023 23.2345 53.0023 22.5923C53.0023 21.349 53.4369 20.3632 54.3022 19.6405C55.1688 18.9207 56.3557 18.553 57.8708 18.553C58.6285 18.553 59.3535 18.6251 60.0474 18.7708C60.7399 18.9122 61.2937 19.0736 61.6999 19.2361L61.0867 22.1636C60.6761 22.0123 60.2301 21.8794 59.75 21.7635C59.2699 21.6448 58.729 21.5824 58.1313 21.5824C57.0282 21.5824 56.4758 21.9134 56.4758 22.5682C56.4758 22.7195 56.5 22.8539 56.5481 22.9712C56.5962 23.0901 56.6899 23.2033 56.8287 23.3121C56.9743 23.4197 57.1642 23.5411 57.4105 23.6658C57.6554 23.7973 57.967 23.9329 58.3454 24.0871C59.1141 24.3926 59.7528 24.6896 60.257 24.9896C60.7624 25.2894 61.159 25.6049 61.4522 25.9554C61.7438 26.2978 61.9507 26.677 62.0667 27.0982C62.183 27.5184 62.2437 28.0034 62.2437 28.5565C62.2437 29.8675 61.782 30.8588 60.863 31.5292C59.9397 32.1969 58.634 32.5334 56.9474 32.5334C55.8456 32.5334 54.928 32.4358 54.1959 32.2309C53.461 32.0314 52.954 31.859 52.6709 31.7259L53.2612 28.6738C53.8576 28.9256 54.4779 29.1207 55.1039 29.268C55.7382 29.4122 56.3557 29.4842 56.9743 29.4842Z" fill="#00425F"/>
<mask id="mask3_1791_33168" style="mask-type:alpha" maskUnits="userSpaceOnUse" x="52" y="18" width="11" height="15">
<path d="M54.302 19.6407C55.1688 18.9207 56.3554 18.553 57.8706 18.553C58.6284 18.553 59.3534 18.6251 60.0474 18.7708C60.7397 18.9122 61.2934 19.0733 61.6998 19.2361L61.0867 22.1636C60.6759 22.0123 60.2301 21.8794 59.7498 21.7635C59.2699 21.6446 58.7288 21.5827 58.1313 21.5827C57.028 21.5827 56.4758 21.9132 56.4758 22.5682C56.4758 22.7195 56.4997 22.8539 56.5478 22.9712C56.5962 23.0901 56.6898 23.2033 56.8286 23.3121C56.9741 23.4197 57.1642 23.5411 57.4105 23.6658C57.6554 23.797 57.9668 23.9331 58.3451 24.0871C59.1141 24.3926 59.7528 24.6896 60.2568 24.9896C60.7624 25.2894 61.159 25.6047 61.4522 25.9554C61.7438 26.2978 61.9505 26.6768 62.0667 27.0982C62.183 27.5184 62.2435 28.0034 62.2435 28.5565C62.2435 29.8675 61.7818 30.859 60.863 31.5292C59.9396 32.1969 58.634 32.5334 56.9474 32.5334C55.8456 32.5334 54.928 32.4358 54.1959 32.2309C53.4608 32.0314 52.954 31.859 52.6707 31.7259L53.2612 28.6738C53.8576 28.9258 54.4776 29.1207 55.1036 29.268C55.7379 29.4119 56.3554 29.4842 56.9741 29.4842C57.6185 29.4842 58.0747 29.4135 58.3451 29.2804C58.6142 29.1462 58.7444 28.8831 58.7444 28.4985C58.7444 28.1943 58.5746 27.9299 58.2261 27.705C57.8777 27.476 57.3536 27.2214 56.6429 26.9313C56.0919 26.7121 55.5909 26.4861 55.1388 26.2526C54.693 26.0151 54.3105 25.7378 53.995 25.4082C53.6803 25.08 53.4368 24.6869 53.2612 24.2287C53.0856 23.7787 53.0021 23.2345 53.0021 22.5923C53.0021 21.3492 53.4368 20.3635 54.302 19.6407Z" fill="white"/>
</mask>
<g mask="url(#mask3_1791_33168)">
<path fill-rule="evenodd" clip-rule="evenodd" d="M-170.209 69.4594L326.176 69.4594L326.176 -631.805H-170.209L-170.209 69.4594Z" fill="#00425F"/>
<path fill-rule="evenodd" clip-rule="evenodd" d="M46.7615 38.4264H68.1532V12.6599H46.7615V38.4264Z" fill="#00425F"/>
</g>
<path fill-rule="evenodd" clip-rule="evenodd" d="M73.1024 24.5603C72.7866 25.839 72.4538 27.1119 72.0985 28.3705C71.7442 29.6336 71.3675 30.9037 70.9783 32.1821H68.2353C67.9506 31.475 67.6406 30.6349 67.3092 29.6604C66.9748 28.6817 66.6337 27.6196 66.2753 26.4642C65.9211 25.3127 65.5589 24.0937 65.1876 22.8038C64.8152 21.5197 64.4541 20.2213 64.1086 18.9073H67.8217C67.9449 19.5112 68.085 20.1747 68.2365 20.8887C68.3868 21.6044 68.5453 22.3413 68.711 23.0994C68.8768 23.8548 69.0537 24.614 69.2349 25.3806C69.4176 26.1472 69.6047 26.8812 69.7941 27.5872C69.9997 26.8474 70.2008 26.0921 70.3976 25.3184C70.5916 24.5436 70.7829 23.7825 70.9654 23.0345C71.1454 22.2876 71.3224 21.5621 71.4837 20.8635C71.648 20.166 71.794 19.5112 71.9228 18.9073H74.4732C74.6034 19.5112 74.7406 20.166 74.9006 20.8635C75.0564 21.5621 75.2223 22.2876 75.3979 23.0345C75.5678 23.7825 75.7533 24.5436 75.9388 25.3184C76.1298 26.0921 76.3255 26.8474 76.528 27.5872C76.719 26.8812 76.9089 26.1472 77.0999 25.3806C77.2912 24.614 77.471 23.8548 77.6353 23.0994C77.7996 22.3413 77.9582 21.6044 78.1112 20.8887C78.2627 20.1747 78.4001 19.5112 78.526 18.9073H82.191C81.8427 20.2213 81.4844 21.5197 81.112 22.8038C80.7366 24.0937 80.3783 25.3127 80.0201 26.4642C79.6673 27.6196 79.3191 28.6817 78.9805 29.6604C78.6394 30.6349 78.3248 31.475 78.0447 32.1821H75.3017C74.905 30.9037 74.5199 29.6336 74.1404 28.3705C73.7622 27.1119 73.4195 25.839 73.1024 24.5603Z" fill="#00425F"/>
<mask id="mask4_1791_33168" style="mask-type:alpha" maskUnits="userSpaceOnUse" x="64" y="18" width="19" height="15">
<path d="M78.526 18.9074H82.191C81.8427 20.2214 81.4844 21.5198 81.1118 22.8037C80.7366 24.0938 80.3783 25.313 80.0199 26.4643C79.6673 27.6197 79.3191 28.6819 78.9803 29.6605C78.6392 30.6351 78.3248 31.4749 78.0445 32.1823H75.3015C74.9049 30.9038 74.5199 29.6335 74.1404 28.3704C73.7622 27.112 73.4195 25.8391 73.1024 24.5605C72.7864 25.8391 72.4536 27.112 72.0985 28.3704C71.7442 29.6335 71.3675 30.9038 70.9781 32.1823H68.2351C67.9504 31.4749 67.6404 30.6351 67.3089 29.6605C66.9748 28.6819 66.6334 27.6197 66.2753 26.4643C65.9211 25.313 65.5586 24.0938 65.1876 22.8037C64.8152 21.5198 64.4541 20.2214 64.1086 18.9074H67.8215C67.9449 19.5113 68.085 20.1746 68.2365 20.8889C68.3868 21.6045 68.5451 22.3415 68.711 23.0993C68.8765 23.8547 69.0537 24.6141 69.2349 25.3807C69.4176 26.1473 69.6047 26.8813 69.7941 27.5873C69.9994 26.8476 70.2006 26.092 70.3974 25.3185C70.5914 24.5437 70.7829 23.7826 70.9654 23.0346C71.1452 22.2875 71.3222 21.562 71.4837 20.8636C71.648 20.1661 71.794 19.5113 71.9226 18.9074H74.4732C74.6032 19.5113 74.7406 20.1661 74.9006 20.8636C75.0564 21.562 75.2223 22.2875 75.3977 23.0346C75.5678 23.7826 75.7531 24.5437 75.9388 25.3185C76.1298 26.092 76.3255 26.8476 76.5278 27.5873C76.719 26.8813 76.9087 26.1473 77.0999 25.3807C77.2912 24.6141 77.471 23.8547 77.6353 23.0993C77.7996 22.3415 77.9582 21.6045 78.111 20.8889C78.2627 20.1746 78.4001 19.5113 78.526 18.9074Z" fill="white"/>
</mask>
<g mask="url(#mask4_1791_33168)">
<path fill-rule="evenodd" clip-rule="evenodd" d="M-170.209 69.4595L326.176 69.4595L326.176 -631.805H-170.209L-170.209 69.4595Z" fill="#00425F"/>
<path fill-rule="evenodd" clip-rule="evenodd" d="M58.1995 38.0755H88.1005V13.0146L58.1995 13.0146V38.0755Z" fill="#00425F"/>
</g>
<path fill-rule="evenodd" clip-rule="evenodd" d="M84.6816 32.1771H88.1993V18.9051H84.6816V32.1771Z" fill="#00425F"/>
<mask id="mask5_1791_33168" style="mask-type:alpha" maskUnits="userSpaceOnUse" x="84" y="18" width="5" height="15">
<path d="M84.6816 32.1773V18.9053H88.1996V32.1773H84.6816Z" fill="white"/>
</mask>
<g mask="url(#mask5_1791_33168)">
<path fill-rule="evenodd" clip-rule="evenodd" d="M-170.209 69.4595L326.176 69.4595L326.176 -631.805H-170.209L-170.209 69.4595Z" fill="#00425F"/>
<path fill-rule="evenodd" clip-rule="evenodd" d="M78.7722 38.0702H94.1085V13.0121H78.7722V38.0702Z" fill="#00425F"/>
</g>
<path fill-rule="evenodd" clip-rule="evenodd" d="M90.9974 15.5951L94.5179 14.9291V18.9116H98.0017V22.0345H94.5179V26.7047C94.5179 27.4951 94.6482 28.1318 94.9073 28.597C95.1665 29.068 95.6917 29.3042 96.4779 29.3042C96.8588 29.3042 97.2496 29.2702 97.6489 29.1924C98.0524 29.116 98.4179 29.0072 98.7507 28.8756L99.245 31.8034C98.8186 31.9897 98.3442 32.1483 97.8275 32.284C97.3046 32.4169 96.6719 32.4848 95.9126 32.4848C94.9499 32.4848 94.1554 32.3464 93.5252 32.0662C92.8937 31.7933 92.3894 31.4072 92.0129 30.9064C91.6361 30.4143 91.3728 29.8075 91.2214 29.1047C91.0683 28.3962 90.9974 27.6126 90.9974 26.7568V15.5951Z" fill="#00425F"/>
<mask id="mask6_1791_33168" style="mask-type:alpha" maskUnits="userSpaceOnUse" x="90" y="14" width="10" height="19">
<path d="M90.9974 15.5952L94.5176 14.9292V18.9118H98.0015V22.0346H94.5176V26.7048C94.5176 27.4952 94.6482 28.1317 94.9073 28.5971C95.1665 29.0681 95.6917 29.3041 96.4777 29.3041C96.8586 29.3041 97.2496 29.2703 97.6489 29.1925C98.0524 29.1158 98.4179 29.0073 98.7504 28.8758L99.2448 31.8033C98.8186 31.9899 98.344 32.1485 97.8275 32.2841C97.3046 32.417 96.6719 32.4849 95.9126 32.4849C94.9499 32.4849 94.1552 32.3465 93.5252 32.0663C92.8935 31.7932 92.3894 31.4073 92.0129 30.9068C91.6361 30.4145 91.3728 29.8079 91.2212 29.1048C91.0683 28.3963 90.9974 27.6125 90.9974 26.7571V15.5952Z" fill="white"/>
</mask>
<g mask="url(#mask6_1791_33168)">
<path fill-rule="evenodd" clip-rule="evenodd" d="M-170.209 69.4593L326.176 69.4593L326.176 -631.805H-170.209L-170.209 69.4593Z" fill="#00425F"/>
<path fill-rule="evenodd" clip-rule="evenodd" d="M85.0878 38.3779H105.154V9.03596H85.0878V38.3779Z" fill="#00425F"/>
</g>
<path fill-rule="evenodd" clip-rule="evenodd" d="M100.489 25.5479C100.489 24.5874 100.635 23.6824 100.927 22.8339C101.218 21.9824 101.639 21.2443 102.19 20.6119C102.742 19.9798 103.411 19.4818 104.201 19.11C104.987 18.7437 105.885 18.5541 106.893 18.5541C107.554 18.5541 108.162 18.6206 108.714 18.745C109.266 18.8738 109.805 19.0535 110.321 19.2867L109.591 22.2895C109.258 22.1563 108.897 22.0404 108.5 21.9358C108.106 21.8366 107.663 21.7845 107.176 21.7845C106.137 21.7845 105.359 22.1309 104.851 22.821C104.334 23.5128 104.082 24.4194 104.082 25.5479C104.082 26.74 104.321 27.6664 104.806 28.3228C105.281 28.9776 106.123 29.3072 107.319 29.3072C107.745 29.3072 108.2 29.2631 108.691 29.1798C109.178 29.0949 109.627 28.962 110.041 28.7754L110.534 31.8557C110.123 32.0409 109.613 32.1966 108.999 32.3336C108.381 32.4669 107.706 32.536 106.966 32.536C105.832 32.536 104.852 32.3522 104.035 31.9914C103.217 31.6308 102.541 31.1385 102.014 30.5163C101.483 29.8927 101.101 29.1573 100.856 28.3086C100.611 27.4586 100.489 26.5367 100.489 25.5479Z" fill="#00425F"/>
<mask id="mask7_1791_33168" style="mask-type:alpha" maskUnits="userSpaceOnUse" x="100" y="18" width="11" height="15">
<path d="M104.201 19.11C104.987 18.7437 105.885 18.5541 106.893 18.5541C107.554 18.5541 108.162 18.6204 108.714 18.7448C109.266 18.8738 109.805 19.0533 110.321 19.2867L109.591 22.2892C109.258 22.1563 108.897 22.0404 108.5 21.9358C108.106 21.8364 107.663 21.7843 107.176 21.7843C106.137 21.7843 105.359 22.1309 104.851 22.821C104.334 23.5126 104.082 24.4191 104.082 25.5479C104.082 26.74 104.322 27.6664 104.806 28.3228C105.282 28.9776 106.123 29.3072 107.319 29.3072C107.746 29.3072 108.2 29.2631 108.692 29.1798C109.179 29.0949 109.628 28.962 110.041 28.7751L110.534 31.8557C110.123 32.0409 109.613 32.1963 108.999 32.3336C108.381 32.4667 107.706 32.536 106.967 32.536C105.832 32.536 104.853 32.3519 104.035 31.9911C103.217 31.6306 102.541 31.1385 102.014 30.5165C101.484 29.8927 101.101 29.1573 100.856 28.3086C100.611 27.4586 100.489 26.5365 100.489 25.5479C100.489 24.5874 100.635 23.6824 100.927 22.8339C101.219 21.9824 101.639 21.244 102.19 20.6117C102.742 19.9796 103.411 19.4818 104.201 19.11Z" fill="white"/>
</mask>
<g mask="url(#mask7_1791_33168)">
<path fill-rule="evenodd" clip-rule="evenodd" d="M-170.209 69.4593L326.176 69.4593L326.176 -631.805H-170.209L-170.209 69.4593Z" fill="#00425F"/>
<path fill-rule="evenodd" clip-rule="evenodd" d="M94.5798 38.4291H116.443V12.661H94.5798V38.4291Z" fill="#00425F"/>
</g>
<path fill-rule="evenodd" clip-rule="evenodd" d="M112.81 32.1776V15.5904L116.331 14.93V18.9608C116.566 18.8773 116.868 18.7967 117.242 18.7205C117.61 18.6455 117.971 18.6058 118.317 18.6058C119.324 18.6058 120.16 18.7542 120.832 19.0471C121.5 19.3413 122.04 19.7586 122.439 20.2973C122.844 20.8334 123.124 21.4754 123.293 22.2124C123.456 22.9546 123.538 23.7809 123.538 24.6889V32.1776H120.017V25.1399C120.017 23.9292 119.872 23.0722 119.581 22.5645C119.29 22.065 118.749 21.8121 117.963 21.8121C117.643 21.8121 117.351 21.8419 117.073 21.8984C116.799 21.9578 116.551 22.0228 116.331 22.0893V32.1776H112.81Z" fill="#00425F"/>
<mask id="mask8_1791_33168" style="mask-type:alpha" maskUnits="userSpaceOnUse" x="112" y="14" width="12" height="19">
<path d="M112.81 15.5902L116.331 14.9299V18.9609C116.566 18.8771 116.868 18.7966 117.242 18.7204C117.61 18.6453 117.971 18.6059 118.317 18.6059C119.324 18.6059 120.161 18.7544 120.832 19.047C121.5 19.3415 122.04 19.7585 122.439 20.2974C122.844 20.8333 123.125 21.4753 123.293 22.2125C123.456 22.9547 123.538 23.7808 123.538 24.689V32.1774H120.018V25.1397C120.018 23.9293 119.871 23.072 119.581 22.5643C119.29 22.0651 118.749 21.812 117.963 21.812C117.643 21.812 117.351 21.8418 117.073 21.8985C116.799 21.9577 116.551 22.0227 116.331 22.0892V32.1774H112.81V15.5902Z" fill="white"/>
</mask>
<g mask="url(#mask8_1791_33168)">
<path fill-rule="evenodd" clip-rule="evenodd" d="M-170.209 69.4595L326.176 69.4595L326.176 -631.805H-170.209L-170.209 69.4595Z" fill="#00425F"/>
<path fill-rule="evenodd" clip-rule="evenodd" d="M106.9 38.0707H129.447V9.03687H106.9V38.0707Z" fill="#00425F"/>
</g>
<path fill-rule="evenodd" clip-rule="evenodd" d="M6.63025 32.1818L6.63025 20.1544C6.63025 20.1544 8.40036 18.6453 12.272 18.6453C15.7952 18.6453 17.7299 20.525 17.7299 24.6618V32.1818H14.2108V24.6618C14.2108 22.027 12.9758 21.8445 11.9208 21.8445C10.8658 21.8445 10.1592 22.4046 10.1592 22.4046V32.1818H6.63025Z" fill="#00425F"/>
<mask id="mask9_1791_33168" style="mask-type:alpha" maskUnits="userSpaceOnUse" x="6" y="18" width="12" height="15">
<path d="M6.63025 20.1544C6.63025 20.1544 8.40036 18.6453 12.272 18.6453C15.7952 18.6453 17.7297 20.5248 17.7297 24.6621V32.1818H14.2108V24.6621C14.2108 22.0268 12.9758 21.8445 11.9208 21.8445C10.8658 21.8445 10.1592 22.4048 10.1592 22.4048V32.1818H6.63025L6.63025 20.1544Z" fill="white"/>
</mask>
<g mask="url(#mask9_1791_33168)">
<path fill-rule="evenodd" clip-rule="evenodd" d="M-170.209 69.4595L326.176 69.4595L326.176 -631.805H-170.209L-170.209 69.4595Z" fill="#00425F"/>
<path fill-rule="evenodd" clip-rule="evenodd" d="M0.721069 38.075H23.639V12.7526H0.721069L0.721069 38.075Z" fill="#00425F"/>
</g>
<path fill-rule="evenodd" clip-rule="evenodd" d="M0 32.1819L0 15.5918L3.52323 14.9298L3.52323 32.1819H0Z" fill="#00425F"/>
<mask id="mask10_1791_33168" style="mask-type:alpha" maskUnits="userSpaceOnUse" x="0" y="14" width="4" height="19">
<path d="M0 15.592L3.52323 14.9298L3.52323 32.1819H0L0 15.592Z" fill="white"/>
</mask>
<g mask="url(#mask10_1791_33168)">
<path fill-rule="evenodd" clip-rule="evenodd" d="M-170.209 69.4595L326.176 69.4595L326.176 -631.805H-170.209L-170.209 69.4595Z" fill="#00425F"/>
<path fill-rule="evenodd" clip-rule="evenodd" d="M-5.90942 38.075H9.43265L9.43265 9.03703H-5.90942L-5.90942 38.075Z" fill="#00425F"/>
</g>
<path fill-rule="evenodd" clip-rule="evenodd" d="M41.6032 26.4983H33.6785C33.6785 26.4983 33.8555 29.317 37.3745 29.317C39.1364 29.317 40.898 28.7553 40.898 28.7553L41.2506 31.7664C41.2506 31.7664 39.4904 32.5118 37.0263 32.5118C33.5015 32.5118 30.3323 30.6349 30.3323 25.3725C30.3323 21.2341 32.7963 18.6063 36.3184 18.6063C41.6032 18.6063 41.9572 24.238 41.6032 26.4983ZM36.1455 21.2341C33.8555 21.2341 33.6785 23.8646 33.6785 23.8646H38.6066C38.6066 23.8646 38.434 21.2341 36.1455 21.2341Z" fill="#00425F"/>
<mask id="mask11_1791_33168" style="mask-type:alpha" maskUnits="userSpaceOnUse" x="30" y="18" width="12" height="15">
<path d="M30.3323 25.3724C30.3323 21.234 32.7963 18.6062 36.3181 18.6062C41.6029 18.6062 41.9569 24.2381 41.6029 26.4981H33.6785C33.6785 26.4981 33.8555 29.3168 37.3743 29.3168C39.1362 29.3168 40.8978 28.7552 40.8978 28.7552L41.2503 31.7663C41.2503 31.7663 39.4901 32.512 37.0261 32.512C33.5015 32.512 30.3323 30.635 30.3323 25.3724ZM36.1453 21.234C33.8555 21.234 33.6785 23.8647 33.6785 23.8647H38.6066C38.6066 23.8647 38.4337 21.234 36.1453 21.234Z" fill="white"/>
</mask>
<g mask="url(#mask11_1791_33168)">
<path fill-rule="evenodd" clip-rule="evenodd" d="M-170.209 69.4594L326.176 69.4594L326.176 -631.805H-170.209L-170.209 69.4594Z" fill="#00425F"/>
<path fill-rule="evenodd" clip-rule="evenodd" d="M24.4229 38.4048H47.6109V12.7132H24.4229V38.4048Z" fill="#00425F"/>
</g>
<mask id="mask12_1791_33168" style="mask-type:alpha" maskUnits="userSpaceOnUse" x="128" y="12" width="24" height="31">
<path d="M128.205 14.9331C128.205 14.1311 138.334 12.4006 145.127 12.4006C148.073 12.4006 150.391 12.726 150.984 13.5936C154.043 17.6216 132.51 42.8926 130.716 42.126C129.277 41.7427 142.196 25.6577 140.042 19.1449C138.967 15.701 128.205 16.0841 128.205 14.9331Z" fill="white"/>
</mask>
<g mask="url(#mask12_1791_33168)">
<path fill-rule="evenodd" clip-rule="evenodd" d="M122.296 48.0361H157.191V6.50756H122.296V48.0361Z" fill="#ED342B"/>
</g>
<mask id="mask13_1791_33168" style="mask-type:alpha" maskUnits="userSpaceOnUse" x="146" y="0" width="10" height="10">
<path d="M146.5 4.97678C146.5 2.22603 148.589 -5.43594e-05 151.164 -5.43594e-05C153.741 -5.43594e-05 155.827 2.22603 155.827 4.97678C155.827 7.72893 153.741 9.95502 151.164 9.95502C148.589 9.95502 146.5 7.72893 146.5 4.97678Z" fill="white"/>
</mask>
<g mask="url(#mask13_1791_33168)">
<path fill-rule="evenodd" clip-rule="evenodd" d="M140.591 15.8483L161.736 15.8483V-5.89317H140.591V15.8483Z" fill="#ED342B"/>
</g>
<path d="M82.104 44.144C81.552 44.144 81.04 44.04 80.568 43.832C80.096 43.616 79.688 43.332 79.344 42.98L79.944 42.284C80.224 42.58 80.552 42.82 80.928 43.004C81.312 43.18 81.708 43.268 82.116 43.268C82.636 43.268 83.0401 43.152 83.328 42.92C83.6161 42.68 83.7601 42.368 83.7601 41.984C83.7601 41.712 83.7 41.496 83.58 41.336C83.468 41.176 83.312 41.04 83.112 40.928C82.92 40.816 82.7 40.704 82.4521 40.592L81.324 40.1C81.076 39.996 80.828 39.86 80.58 39.692C80.34 39.524 80.136 39.308 79.968 39.044C79.808 38.78 79.728 38.456 79.728 38.072C79.728 37.672 79.832 37.316 80.04 37.004C80.256 36.684 80.552 36.436 80.928 36.26C81.304 36.076 81.728 35.984 82.2 35.984C82.672 35.984 83.108 36.076 83.5081 36.26C83.908 36.436 84.248 36.668 84.5281 36.956L83.988 37.604C83.748 37.372 83.48 37.192 83.184 37.064C82.896 36.928 82.568 36.86 82.2 36.86C81.76 36.86 81.404 36.964 81.132 37.172C80.868 37.38 80.736 37.66 80.736 38.012C80.736 38.26 80.8 38.468 80.928 38.636C81.064 38.796 81.232 38.928 81.432 39.032C81.632 39.136 81.836 39.232 82.044 39.32L83.16 39.8C83.4641 39.928 83.7361 40.084 83.9761 40.268C84.2241 40.444 84.4201 40.664 84.5641 40.928C84.7081 41.184 84.7801 41.508 84.7801 41.9C84.7801 42.316 84.6721 42.696 84.4561 43.04C84.24 43.376 83.932 43.644 83.5321 43.844C83.1321 44.044 82.656 44.144 82.104 44.144ZM86.3542 44V35.456H87.3262V41.24H87.3622L89.8462 38.168H90.9382L88.9822 40.508L91.2022 44H90.1222L88.4182 41.192L87.3262 42.464V44H86.3542ZM92.4156 44V38.168H93.3996V44H92.4156ZM92.9196 36.968C92.7276 36.968 92.5676 36.912 92.4396 36.8C92.3196 36.68 92.2596 36.52 92.2596 36.32C92.2596 36.128 92.3196 35.972 92.4396 35.852C92.5676 35.732 92.7276 35.672 92.9196 35.672C93.1116 35.672 93.2676 35.732 93.3876 35.852C93.5156 35.972 93.5796 36.128 93.5796 36.32C93.5796 36.52 93.5156 36.68 93.3876 36.8C93.2676 36.912 93.1116 36.968 92.9196 36.968ZM96.5327 44.144C96.1647 44.144 95.8967 44.032 95.7287 43.808C95.5687 43.576 95.4887 43.248 95.4887 42.824V35.456H96.4727V42.896C96.4727 43.048 96.5007 43.16 96.5567 43.232C96.6127 43.296 96.6767 43.328 96.7487 43.328C96.7807 43.328 96.8087 43.328 96.8327 43.328C96.8647 43.32 96.9087 43.312 96.9647 43.304L97.0967 44.048C97.0327 44.08 96.9567 44.104 96.8687 44.12C96.7807 44.136 96.6687 44.144 96.5327 44.144ZM99.7113 44.144C99.3433 44.144 99.0753 44.032 98.9073 43.808C98.7473 43.576 98.6673 43.248 98.6673 42.824V35.456H99.6513V42.896C99.6513 43.048 99.6793 43.16 99.7353 43.232C99.7913 43.296 99.8553 43.328 99.9273 43.328C99.9593 43.328 99.9873 43.328 100.011 43.328C100.043 43.32 100.087 43.312 100.143 43.304L100.275 44.048C100.211 44.08 100.135 44.104 100.047 44.12C99.9593 44.136 99.8473 44.144 99.7113 44.144ZM104.426 44.144C104.154 44.144 103.87 44.08 103.574 43.952C103.286 43.816 103.014 43.632 102.758 43.4H102.722L102.638 44H101.846V35.456H102.83V37.784L102.806 38.84C103.07 38.608 103.358 38.416 103.67 38.264C103.99 38.104 104.31 38.024 104.63 38.024C105.39 38.024 105.966 38.292 106.358 38.828C106.75 39.364 106.946 40.084 106.946 40.988C106.946 41.652 106.826 42.22 106.586 42.692C106.354 43.164 106.046 43.524 105.662 43.772C105.286 44.02 104.874 44.144 104.426 44.144ZM104.258 43.316C104.738 43.316 105.134 43.112 105.446 42.704C105.766 42.288 105.926 41.72 105.926 41C105.926 40.36 105.806 39.844 105.566 39.452C105.334 39.052 104.942 38.852 104.39 38.852C104.142 38.852 103.89 38.92 103.634 39.056C103.378 39.192 103.11 39.388 102.83 39.644V42.704C103.086 42.928 103.338 43.088 103.586 43.184C103.842 43.272 104.066 43.316 104.258 43.316ZM109.779 44.144C109.291 44.144 108.883 44 108.555 43.712C108.235 43.416 108.075 43.008 108.075 42.488C108.075 41.848 108.359 41.36 108.927 41.024C109.503 40.68 110.411 40.44 111.651 40.304C111.651 40.056 111.615 39.82 111.543 39.596C111.479 39.372 111.359 39.192 111.183 39.056C111.015 38.912 110.771 38.84 110.451 38.84C110.115 38.84 109.799 38.904 109.503 39.032C109.207 39.16 108.943 39.304 108.711 39.464L108.327 38.78C108.599 38.604 108.931 38.436 109.323 38.276C109.723 38.108 110.155 38.024 110.619 38.024C111.331 38.024 111.847 38.244 112.167 38.684C112.487 39.116 112.647 39.696 112.647 40.424V44H111.831L111.747 43.304H111.711C111.439 43.528 111.139 43.724 110.811 43.892C110.491 44.06 110.147 44.144 109.779 44.144ZM110.067 43.352C110.347 43.352 110.611 43.284 110.859 43.148C111.107 43.012 111.371 42.82 111.651 42.572V40.952C110.683 41.072 110.003 41.252 109.611 41.492C109.227 41.732 109.035 42.04 109.035 42.416C109.035 42.744 109.135 42.984 109.335 43.136C109.535 43.28 109.779 43.352 110.067 43.352ZM116.126 44.144C115.71 44.144 115.314 44.068 114.938 43.916C114.562 43.756 114.234 43.564 113.954 43.34L114.446 42.68C114.702 42.88 114.966 43.048 115.238 43.184C115.51 43.312 115.818 43.376 116.162 43.376C116.546 43.376 116.834 43.288 117.026 43.112C117.218 42.928 117.314 42.712 117.314 42.464C117.314 42.264 117.246 42.096 117.11 41.96C116.982 41.824 116.814 41.712 116.606 41.624C116.406 41.528 116.198 41.44 115.982 41.36C115.71 41.256 115.442 41.14 115.178 41.012C114.914 40.876 114.698 40.704 114.53 40.496C114.362 40.28 114.278 40.008 114.278 39.68C114.278 39.208 114.454 38.816 114.806 38.504C115.166 38.184 115.662 38.024 116.294 38.024C116.654 38.024 116.99 38.088 117.302 38.216C117.614 38.344 117.882 38.5 118.106 38.684L117.626 39.308C117.426 39.156 117.218 39.032 117.002 38.936C116.786 38.84 116.55 38.792 116.294 38.792C115.926 38.792 115.654 38.876 115.478 39.044C115.31 39.212 115.226 39.408 115.226 39.632C115.226 39.816 115.286 39.968 115.406 40.088C115.526 40.2 115.682 40.3 115.874 40.388C116.066 40.468 116.27 40.552 116.486 40.64C116.766 40.744 117.042 40.864 117.314 41C117.586 41.128 117.81 41.304 117.986 41.528C118.17 41.744 118.262 42.036 118.262 42.404C118.262 42.716 118.178 43.004 118.01 43.268C117.85 43.532 117.61 43.744 117.29 43.904C116.978 44.064 116.59 44.144 116.126 44.144ZM122.113 44.144C121.593 44.144 121.121 44.024 120.697 43.784C120.273 43.536 119.937 43.184 119.689 42.728C119.441 42.272 119.317 41.728 119.317 41.096C119.317 40.456 119.441 39.908 119.689 39.452C119.945 38.996 120.273 38.644 120.673 38.396C121.073 38.148 121.493 38.024 121.933 38.024C122.677 38.024 123.249 38.272 123.649 38.768C124.057 39.264 124.261 39.928 124.261 40.76C124.261 40.864 124.257 40.968 124.249 41.072C124.249 41.168 124.241 41.252 124.225 41.324H120.289C120.329 41.94 120.521 42.432 120.865 42.8C121.217 43.168 121.673 43.352 122.233 43.352C122.513 43.352 122.769 43.312 123.001 43.232C123.241 43.144 123.469 43.032 123.685 42.896L124.033 43.544C123.785 43.704 123.501 43.844 123.181 43.964C122.869 44.084 122.513 44.144 122.113 44.144ZM120.277 40.616H123.397C123.397 40.024 123.269 39.576 123.013 39.272C122.765 38.96 122.413 38.804 121.957 38.804C121.549 38.804 121.181 38.964 120.853 39.284C120.533 39.596 120.341 40.04 120.277 40.616Z" fill="#00425F"/>
</svg>
