<svg width="156" height="47" viewBox="0 0 156 47" fill="none" xmlns="http://www.w3.org/2000/svg">
<path fill-rule="evenodd" clip-rule="evenodd" d="M51.2258 23.5291L51.7554 20.3172C51.7554 20.3172 47.6771 18.9063 44.3578 21.5229V34.3718H47.8826V23.9327C49.2872 22.7269 51.2258 23.5291 51.2258 23.5291Z" fill="white"/>
<mask id="mask0_4232_4741" style="mask-type:alpha" maskUnits="userSpaceOnUse" x="44" y="19" width="8" height="16">
<path d="M44.3578 21.5229C45.9548 20.2642 47.7277 19.9374 49.1374 19.9377C50.6576 19.9377 51.7556 20.3174 51.7556 20.3174L51.2258 23.5294C51.2258 23.5294 49.2872 22.7272 47.8826 23.9327V34.3718H44.3578V21.5229Z" fill="white"/>
</mask>
<g mask="url(#mask0_4232_4741)">
<path fill-rule="evenodd" clip-rule="evenodd" d="M-170.209 74.1953L326.176 74.1953L326.176 -674.882H-170.209L-170.209 74.1953Z" fill="white"/>
</g>
<mask id="mask1_4232_4741" style="mask-type:alpha" maskUnits="userSpaceOnUse" x="44" y="19" width="8" height="16">
<path d="M44.3578 21.5229C45.9548 20.2642 47.7275 19.9377 49.1374 19.9377C50.6576 19.9377 51.7556 20.3174 51.7556 20.3174L51.2258 23.5294C51.2258 23.5294 49.2872 22.7272 47.8826 23.9327V34.3718H44.3578V21.5229Z" fill="white"/>
</mask>
<g mask="url(#mask1_4232_4741)">
<path fill-rule="evenodd" clip-rule="evenodd" d="M38.4486 40.6667H57.6651V13.6428H38.4486V40.6667Z" fill="white"/>
</g>
<path fill-rule="evenodd" clip-rule="evenodd" d="M20.8378 16.6539L24.361 15.9468V20.1256H27.8473V23.4675H24.361V28.4512C24.361 29.3002 24.4898 29.9742 24.7534 30.4726C25.0139 30.9786 25.5364 31.2294 26.321 31.2294C26.7046 31.2294 27.0899 31.1902 27.4963 31.1071C27.8913 31.0225 28.2595 30.9139 28.591 30.7717L29.0895 33.902C28.663 34.0969 28.1916 34.2661 27.672 34.4095C27.1507 34.5514 26.5106 34.6255 25.7543 34.6255C24.793 34.6255 23.9985 34.4762 23.3667 34.18C22.7381 33.8839 22.2327 33.4683 21.856 32.938C21.4792 32.4124 21.2143 31.7673 21.0656 31.012C20.9142 30.2581 20.8378 29.4255 20.8378 28.5071V16.6539Z" fill="white"/>
<mask id="mask2_4232_4741" style="mask-type:alpha" maskUnits="userSpaceOnUse" x="20" y="15" width="10" height="20">
<path d="M20.838 16.6539L24.3612 15.9468V20.1256H27.8476V23.4675H24.3612V28.4512C24.3612 29.3005 24.4901 29.9742 24.7534 30.4726C25.0139 30.9789 25.5364 31.2294 26.321 31.2294C26.7046 31.2294 27.0897 31.1902 27.4964 31.1071C27.8913 31.0225 28.2598 30.9139 28.5912 30.772L29.0895 33.902C28.6633 34.0972 28.1917 34.2663 27.672 34.4097C27.1507 34.5517 26.5106 34.6255 25.7543 34.6255C24.7928 34.6255 23.9985 34.4762 23.3669 34.18C22.7382 33.8839 22.2325 33.4683 21.856 32.9383C21.4792 32.4124 21.2145 31.7673 21.0659 31.012C20.9142 30.2581 20.838 29.4258 20.838 28.5071V16.6539Z" fill="white"/>
</mask>
<g mask="url(#mask2_4232_4741)">
<path fill-rule="evenodd" clip-rule="evenodd" d="M-170.209 74.1948L326.176 74.1948L326.176 -674.883H-170.209L-170.209 74.1948Z" fill="white"/>
<path fill-rule="evenodd" clip-rule="evenodd" d="M14.9283 40.9204H34.9986V9.65193H14.9283L14.9283 40.9204Z" fill="white"/>
</g>
<path fill-rule="evenodd" clip-rule="evenodd" d="M56.9743 31.4944C57.6188 31.4944 58.0747 31.4187 58.3454 31.2767C58.6142 31.1333 58.7445 30.8524 58.7445 30.4415C58.7445 30.1166 58.5746 29.8342 58.2261 29.5939C57.8779 29.3493 57.3539 29.0774 56.6431 28.7675C56.0921 28.5333 55.5909 28.2919 55.1391 28.0425C54.6931 27.7888 54.3107 27.4926 53.995 27.1405C53.6804 26.7902 53.4369 26.37 53.2612 25.8806C53.0856 25.4001 53.0023 24.8186 53.0023 24.1326C53.0023 22.8045 53.4369 21.7515 54.3022 20.9795C55.1688 20.2107 56.3557 19.8179 57.8708 19.8179C58.6285 19.8179 59.3535 19.8949 60.0474 20.0506C60.7399 20.2016 61.2937 20.374 61.6999 20.5475L61.0867 23.6746C60.6761 23.5131 60.2301 23.3711 59.75 23.2473C59.2699 23.1206 58.729 23.0539 58.1313 23.0539C57.0282 23.0539 56.4758 23.4074 56.4758 24.1069C56.4758 24.2684 56.5 24.4121 56.5481 24.5374C56.5962 24.6644 56.6899 24.7852 56.8287 24.9015C56.9743 25.0164 57.1642 25.1461 57.4105 25.2793C57.6554 25.4197 57.967 25.5646 58.3454 25.7294C59.1141 26.0557 59.7528 26.3729 60.257 26.6934C60.7624 27.0136 61.159 27.3506 61.4522 27.725C61.7438 28.0908 61.9507 28.4958 62.0667 28.9457C62.183 29.3946 62.2437 29.9126 62.2437 30.5035C62.2437 31.9039 61.782 32.9627 60.863 33.6789C59.9397 34.3921 58.634 34.7515 56.9474 34.7515C55.8456 34.7515 54.928 34.6473 54.1959 34.4284C53.461 34.2153 52.954 34.0312 52.6709 33.889L53.2612 30.6288C53.8576 30.8977 54.4779 31.1061 55.1039 31.2635C55.7382 31.4175 56.3557 31.4944 56.9743 31.4944Z" fill="white"/>
<mask id="mask3_4232_4741" style="mask-type:alpha" maskUnits="userSpaceOnUse" x="52" y="19" width="11" height="16">
<path d="M54.302 20.9798C55.1688 20.2107 56.3554 19.8179 57.8706 19.8179C58.6284 19.8179 59.3534 19.8949 60.0474 20.0506C60.7397 20.2016 61.2934 20.3737 61.6998 20.5475L61.0867 23.6746C60.6759 23.5131 60.2301 23.3711 59.7498 23.2473C59.2699 23.1203 58.7288 23.0541 58.1313 23.0541C57.028 23.0541 56.4758 23.4072 56.4758 24.1069C56.4758 24.2684 56.4997 24.4121 56.5478 24.5374C56.5962 24.6644 56.6898 24.7852 56.8286 24.9015C56.9741 25.0164 57.1642 25.1461 57.4105 25.2793C57.6554 25.4195 57.9668 25.5649 58.3451 25.7294C59.1141 26.0557 59.7528 26.3729 60.2568 26.6934C60.7624 27.0136 61.159 27.3504 61.4522 27.725C61.7438 28.0908 61.9505 28.4956 62.0667 28.9457C62.183 29.3946 62.2435 29.9126 62.2435 30.5035C62.2435 31.9039 61.7818 32.963 60.863 33.6789C59.9396 34.3921 58.634 34.7515 56.9474 34.7515C55.8456 34.7515 54.928 34.6473 54.1959 34.4284C53.4608 34.2153 52.954 34.0312 52.6707 33.889L53.2612 30.6288C53.8576 30.898 54.4776 31.1061 55.1036 31.2635C55.7379 31.4172 56.3554 31.4944 56.9741 31.4944C57.6185 31.4944 58.0747 31.4189 58.3451 31.2767C58.6142 31.1333 58.7444 30.8524 58.7444 30.4415C58.7444 30.1166 58.5746 29.8342 58.2261 29.5939C57.8777 29.3493 57.3536 29.0774 56.6429 28.7675C56.0919 28.5333 55.5909 28.2919 55.1388 28.0425C54.693 27.7888 54.3105 27.4926 53.995 27.1405C53.6803 26.79 53.4368 26.37 53.2612 25.8806C53.0856 25.3999 53.0021 24.8186 53.0021 24.1326C53.0021 22.8048 53.4368 21.7518 54.302 20.9798Z" fill="white"/>
</mask>
<g mask="url(#mask3_4232_4741)">
<path fill-rule="evenodd" clip-rule="evenodd" d="M-170.209 74.1951L326.176 74.1951L326.176 -674.882H-170.209L-170.209 74.1951Z" fill="white"/>
<path fill-rule="evenodd" clip-rule="evenodd" d="M46.7615 41.0464H68.1532V13.5231H46.7615V41.0464Z" fill="white"/>
</g>
<path fill-rule="evenodd" clip-rule="evenodd" d="M73.1024 26.2348C72.7866 27.6006 72.4538 28.9603 72.0985 30.3048C71.7442 31.6539 71.3675 33.0106 70.9783 34.3762H68.2353C67.9506 33.6209 67.6406 32.7236 67.3092 31.6826C66.9748 30.6372 66.6337 29.5026 66.2753 28.2684C65.9211 27.0384 65.5589 25.7363 65.1876 24.3585C64.8152 22.9868 64.4541 21.5999 64.1086 20.1963H67.8217C67.9449 20.8414 68.085 21.5501 68.2365 22.3128C68.3868 23.0772 68.5453 23.8645 68.711 24.6743C68.8768 25.4811 69.0537 26.2921 69.2349 27.111C69.4176 27.9298 69.6047 28.7139 69.7941 29.468C69.9997 28.6778 70.2008 27.871 70.3976 27.0445C70.5916 26.2168 70.7829 25.4039 70.9654 24.6049C71.1454 23.8071 71.3224 23.0321 71.4837 22.2859C71.648 21.5408 71.794 20.8414 71.9228 20.1963H74.4732C74.6034 20.8414 74.7406 21.5408 74.9006 22.2859C75.0564 23.0321 75.2223 23.8071 75.3979 24.6049C75.5678 25.4039 75.7533 26.2168 75.9388 27.0445C76.1298 27.871 76.3255 28.6778 76.528 29.468C76.719 28.7139 76.9089 27.9298 77.0999 27.111C77.2912 26.2921 77.471 25.4811 77.6353 24.6743C77.7996 23.8645 77.9582 23.0772 78.1112 22.3128C78.2627 21.5501 78.4001 20.8414 78.526 20.1963H82.191C81.8427 21.5999 81.4844 22.9868 81.112 24.3585C80.7366 25.7363 80.3783 27.0384 80.0201 28.2684C79.6673 29.5026 79.3191 30.6372 78.9805 31.6826C78.6394 32.7236 78.3248 33.6209 78.0447 34.3762H75.3017C74.905 33.0106 74.5199 31.6539 74.1404 30.3048C73.7622 28.9603 73.4195 27.6006 73.1024 26.2348Z" fill="white"/>
<mask id="mask4_4232_4741" style="mask-type:alpha" maskUnits="userSpaceOnUse" x="64" y="20" width="19" height="15">
<path d="M78.526 20.1963H82.191C81.8427 21.5999 81.4844 22.9868 81.1118 24.3582C80.7366 25.7363 80.3783 27.0386 80.0199 28.2684C79.6673 29.5026 79.3191 30.6372 78.9803 31.6826C78.6392 32.7236 78.3248 33.6206 78.0445 34.3762H75.3015C74.9049 33.0106 74.5199 31.6536 74.1404 30.3045C73.7622 28.9603 73.4195 27.6006 73.1024 26.2348C72.7864 27.6006 72.4536 28.9603 72.0985 30.3045C71.7442 31.6536 71.3675 33.0106 70.9781 34.3762H68.2351C67.9504 33.6206 67.6404 32.7236 67.3089 31.6826C66.9748 30.6372 66.6334 29.5026 66.2753 28.2684C65.9211 27.0386 65.5586 25.7363 65.1876 24.3582C64.8152 22.9868 64.4541 21.5999 64.1086 20.1963H67.8215C67.9449 20.8414 68.085 21.5499 68.2365 22.3128C68.3868 23.0772 68.5451 23.8645 68.711 24.674C68.8765 25.4809 69.0537 26.2921 69.2349 27.111C69.4176 27.9298 69.6047 28.7139 69.7941 29.468C69.9994 28.6778 70.2006 27.8707 70.3974 27.0445C70.5914 26.2168 70.7829 25.4039 70.9654 24.6049C71.1452 23.8069 71.3222 23.0319 71.4837 22.2859C71.648 21.5408 71.794 20.8414 71.9226 20.1963H74.4732C74.6032 20.8414 74.7406 21.5408 74.9006 22.2859C75.0564 23.0319 75.2223 23.8069 75.3977 24.6049C75.5678 25.4039 75.7531 26.2168 75.9388 27.0445C76.1298 27.8707 76.3255 28.6778 76.5278 29.468C76.719 28.7139 76.9087 27.9298 77.0999 27.111C77.2912 26.2921 77.471 25.4809 77.6353 24.674C77.7996 23.8645 77.9582 23.0772 78.111 22.3128C78.2627 21.5499 78.4001 20.8414 78.526 20.1963Z" fill="white"/>
</mask>
<g mask="url(#mask4_4232_4741)">
<path fill-rule="evenodd" clip-rule="evenodd" d="M-170.209 74.1953L326.176 74.1953L326.176 -674.882H-170.209L-170.209 74.1953Z" fill="white"/>
<path fill-rule="evenodd" clip-rule="evenodd" d="M58.1995 40.6714H88.1005V13.9018L58.1995 13.9018V40.6714Z" fill="white"/>
</g>
<path fill-rule="evenodd" clip-rule="evenodd" d="M84.6816 34.3708H88.1993V20.1939H84.6816V34.3708Z" fill="white"/>
<mask id="mask5_4232_4741" style="mask-type:alpha" maskUnits="userSpaceOnUse" x="84" y="20" width="5" height="15">
<path d="M84.6816 34.3711V20.1942H88.1995V34.3711H84.6816Z" fill="white"/>
</mask>
<g mask="url(#mask5_4232_4741)">
<path fill-rule="evenodd" clip-rule="evenodd" d="M-170.209 74.1953L326.176 74.1953L326.176 -674.882H-170.209L-170.209 74.1953Z" fill="white"/>
<path fill-rule="evenodd" clip-rule="evenodd" d="M78.7722 40.6658H94.1085V13.8992H78.7722V40.6658Z" fill="white"/>
</g>
<path fill-rule="evenodd" clip-rule="evenodd" d="M90.9975 16.6585L94.5179 15.947V20.2011H98.0018V23.5368H94.5179V28.5255C94.5179 29.3698 94.6482 30.0499 94.9074 30.5469C95.1665 31.0499 95.6917 31.3022 96.4779 31.3022C96.8588 31.3022 97.2496 31.2659 97.649 31.1828C98.0524 31.1012 98.4179 30.985 98.7507 30.8445L99.2451 33.9718C98.8186 34.1709 98.3443 34.3403 97.8276 34.4852C97.3047 34.6272 96.672 34.6997 95.9127 34.6997C94.95 34.6997 94.1555 34.5519 93.5253 34.2525C92.8937 33.961 92.3895 33.5487 92.013 33.0137C91.6362 32.4881 91.3729 31.8399 91.2214 31.0892C91.0684 30.3323 90.9975 29.4953 90.9975 28.5811V16.6585Z" fill="white"/>
<mask id="mask6_4232_4741" style="mask-type:alpha" maskUnits="userSpaceOnUse" x="90" y="15" width="10" height="20">
<path d="M90.9975 16.6585L94.5177 15.947V20.2011H98.0016V23.5368H94.5177V28.5255C94.5177 29.3698 94.6482 30.0496 94.9074 30.5469C95.1665 31.0499 95.6917 31.302 96.4777 31.302C96.8586 31.302 97.2496 31.2659 97.649 31.1828C98.0524 31.1009 98.4179 30.985 98.7505 30.8445L99.2449 33.9716C98.8186 34.1709 98.344 34.3403 97.8276 34.4852C97.3047 34.6272 96.672 34.6997 95.9127 34.6997C94.95 34.6997 94.1552 34.5519 93.5253 34.2525C92.8935 33.9608 92.3895 33.5487 92.0129 33.0139C91.6362 32.4881 91.3729 31.8401 91.2212 31.0892C91.0684 30.3323 90.9975 29.4951 90.9975 28.5814V16.6585Z" fill="white"/>
</mask>
<g mask="url(#mask6_4232_4741)">
<path fill-rule="evenodd" clip-rule="evenodd" d="M-170.209 74.1951L326.176 74.1951L326.176 -674.882H-170.209L-170.209 74.1951Z" fill="white"/>
<path fill-rule="evenodd" clip-rule="evenodd" d="M85.0878 40.9946H105.154V9.65207H85.0878V40.9946Z" fill="white"/>
</g>
<path fill-rule="evenodd" clip-rule="evenodd" d="M100.489 27.2896C100.489 26.2636 100.635 25.2969 100.927 24.3905C101.218 23.481 101.639 22.6925 102.19 22.0171C102.742 21.3419 103.411 20.8099 104.201 20.4127C104.987 20.0214 105.885 19.8189 106.893 19.8189C107.554 19.8189 108.162 19.89 108.714 20.0229C109.266 20.1604 109.805 20.3524 110.321 20.6015L109.591 23.809C109.258 23.6668 108.897 23.543 108.5 23.4312C108.106 23.3253 107.663 23.2696 107.176 23.2696C106.137 23.2696 105.359 23.6396 104.851 24.3768C104.334 25.1157 104.082 26.0841 104.082 27.2896C104.082 28.563 104.321 29.5525 104.806 30.2537C105.281 30.9531 106.123 31.3052 107.319 31.3052C107.745 31.3052 108.2 31.2581 108.691 31.1691C109.178 31.0784 109.627 30.9364 110.041 30.7371L110.534 34.0275C110.123 34.2253 109.613 34.3916 108.999 34.5379C108.381 34.6804 107.706 34.7542 106.966 34.7542C105.832 34.7542 104.852 34.5578 104.035 34.1724C103.217 33.7872 102.541 33.2614 102.014 32.5967C101.483 31.9306 101.101 31.1451 100.856 30.2385C100.611 29.3306 100.489 28.3458 100.489 27.2896Z" fill="white"/>
<mask id="mask7_4232_4741" style="mask-type:alpha" maskUnits="userSpaceOnUse" x="100" y="19" width="11" height="16">
<path d="M104.201 20.4127C104.987 20.0214 105.885 19.8189 106.893 19.8189C107.554 19.8189 108.162 19.8898 108.714 20.0226C109.266 20.1604 109.805 20.3521 110.321 20.6015L109.591 23.8087C109.258 23.6668 108.897 23.543 108.5 23.4312C108.106 23.325 107.663 23.2694 107.176 23.2694C106.137 23.2694 105.359 23.6396 104.851 24.3768C104.334 25.1155 104.082 26.0839 104.082 27.2896C104.082 28.563 104.322 29.5525 104.806 30.2537C105.282 30.9531 106.123 31.3052 107.319 31.3052C107.746 31.3052 108.2 31.2581 108.692 31.1691C109.179 31.0784 109.628 30.9364 110.041 30.7369L110.534 34.0275C110.123 34.2253 109.613 34.3913 108.999 34.5379C108.381 34.6801 107.706 34.7542 106.967 34.7542C105.832 34.7542 104.853 34.5575 104.035 34.1721C103.217 33.787 102.541 33.2614 102.014 32.5969C101.484 31.9306 101.101 31.1451 100.856 30.2385C100.611 29.3306 100.489 28.3455 100.489 27.2896C100.489 26.2636 100.635 25.2969 100.927 24.3905C101.219 23.481 101.639 22.6923 102.19 22.0168C102.742 21.3416 103.411 20.8099 104.201 20.4127Z" fill="white"/>
</mask>
<g mask="url(#mask7_4232_4741)">
<path fill-rule="evenodd" clip-rule="evenodd" d="M-170.209 74.1951L326.176 74.1951L326.176 -674.882H-170.209L-170.209 74.1951Z" fill="white"/>
<path fill-rule="evenodd" clip-rule="evenodd" d="M94.5798 41.0491H116.443V13.524H94.5798V41.0491Z" fill="white"/>
</g>
<path fill-rule="evenodd" clip-rule="evenodd" d="M112.81 34.3713V16.6532L116.331 15.9478V20.2535C116.566 20.1642 116.868 20.0782 117.242 19.9968C117.61 19.9166 117.971 19.8742 118.317 19.8742C119.324 19.8742 120.16 20.0328 120.832 20.3456C121.5 20.6599 122.04 21.1057 122.439 21.6811C122.844 22.2538 123.124 22.9395 123.293 23.7267C123.456 24.5196 123.538 25.4022 123.538 26.3721V34.3713H120.017V26.8538C120.017 25.5606 119.872 24.6451 119.581 24.1028C119.29 23.5693 118.749 23.2991 117.963 23.2991C117.643 23.2991 117.351 23.331 117.073 23.3913C116.799 23.4548 116.551 23.5242 116.331 23.5953V34.3713H112.81Z" fill="white"/>
<mask id="mask8_4232_4741" style="mask-type:alpha" maskUnits="userSpaceOnUse" x="112" y="15" width="12" height="20">
<path d="M112.81 16.6532L116.331 15.9478V20.2537C116.566 20.1642 116.868 20.0782 117.242 19.9968C117.61 19.9166 117.971 19.8744 118.317 19.8744C119.324 19.8744 120.161 20.0331 120.832 20.3456C121.5 20.6602 122.04 21.1057 122.439 21.6813C122.844 22.2538 123.125 22.9395 123.293 23.727C123.456 24.5198 123.538 25.4022 123.538 26.3723V34.3713H120.018V26.8538C120.018 25.5608 119.871 24.6451 119.581 24.1028C119.29 23.5696 118.749 23.2991 117.963 23.2991C117.643 23.2991 117.351 23.331 117.073 23.3916C116.799 23.4548 116.551 23.5242 116.331 23.5953V34.3713H112.81V16.6532Z" fill="white"/>
</mask>
<g mask="url(#mask8_4232_4741)">
<path fill-rule="evenodd" clip-rule="evenodd" d="M-170.209 74.1953L326.176 74.1953L326.176 -674.882H-170.209L-170.209 74.1953Z" fill="white"/>
<path fill-rule="evenodd" clip-rule="evenodd" d="M106.9 40.6665H129.447V9.65311H106.9V40.6665Z" fill="white"/>
</g>
<path fill-rule="evenodd" clip-rule="evenodd" d="M6.63025 34.3757L6.63025 21.5283C6.63025 21.5283 8.40036 19.9163 12.272 19.9163C15.7952 19.9163 17.7299 21.9242 17.7299 26.3431V34.3757H14.2108V26.3431C14.2108 23.5286 12.9758 23.3337 11.9208 23.3337C10.8658 23.3337 10.1592 23.9319 10.1592 23.9319V34.3757H6.63025Z" fill="white"/>
<mask id="mask9_4232_4741" style="mask-type:alpha" maskUnits="userSpaceOnUse" x="6" y="19" width="12" height="16">
<path d="M6.63025 21.5283C6.63025 21.5283 8.40036 19.9163 12.272 19.9163C15.7952 19.9163 17.7297 21.924 17.7297 26.3433V34.3757H14.2108V26.3433C14.2108 23.5284 12.9758 23.3337 11.9208 23.3337C10.8658 23.3337 10.1592 23.9321 10.1592 23.9321V34.3757H6.63025L6.63025 21.5283Z" fill="white"/>
</mask>
<g mask="url(#mask9_4232_4741)">
<path fill-rule="evenodd" clip-rule="evenodd" d="M-170.209 74.1953L326.176 74.1953L326.176 -674.882H-170.209L-170.209 74.1953Z" fill="white"/>
<path fill-rule="evenodd" clip-rule="evenodd" d="M0.721069 40.6709H23.639V13.622H0.721069L0.721069 40.6709Z" fill="white"/>
</g>
<path fill-rule="evenodd" clip-rule="evenodd" d="M0 34.376L0 16.6548L3.52323 15.9476L3.52323 34.376H0Z" fill="white"/>
<mask id="mask10_4232_4741" style="mask-type:alpha" maskUnits="userSpaceOnUse" x="0" y="15" width="4" height="20">
<path d="M0 16.655L3.52323 15.9476L3.52323 34.376H0L0 16.655Z" fill="white"/>
</mask>
<g mask="url(#mask10_4232_4741)">
<path fill-rule="evenodd" clip-rule="evenodd" d="M-170.209 74.1953L326.176 74.1953L326.176 -674.882H-170.209L-170.209 74.1953Z" fill="white"/>
<path fill-rule="evenodd" clip-rule="evenodd" d="M-5.90942 40.6709H9.43265L9.43265 9.65309H-5.90942L-5.90942 40.6709Z" fill="white"/>
</g>
<path fill-rule="evenodd" clip-rule="evenodd" d="M41.6032 28.3047H33.6785C33.6785 28.3047 33.8555 31.3155 37.3745 31.3155C39.1364 31.3155 40.898 30.7156 40.898 30.7156L41.2506 33.932C41.2506 33.932 39.4904 34.7283 37.0263 34.7283C33.5015 34.7283 30.3323 32.7233 30.3323 27.1021C30.3323 22.6816 32.7963 19.8747 36.3184 19.8747C41.6032 19.8747 41.9572 25.8903 41.6032 28.3047ZM36.1455 22.6816C33.8555 22.6816 33.6785 25.4914 33.6785 25.4914H38.6066C38.6066 25.4914 38.434 22.6816 36.1455 22.6816Z" fill="white"/>
<mask id="mask11_4232_4741" style="mask-type:alpha" maskUnits="userSpaceOnUse" x="30" y="19" width="12" height="16">
<path d="M30.3323 27.1021C30.3323 22.6816 32.7963 19.8747 36.3181 19.8747C41.6029 19.8747 41.9569 25.8905 41.6029 28.3047H33.6785C33.6785 28.3047 33.8555 31.3155 37.3743 31.3155C39.1362 31.3155 40.8978 30.7156 40.8978 30.7156L41.2503 33.932C41.2503 33.932 39.4901 34.7285 37.0261 34.7285C33.5015 34.7285 30.3323 32.7236 30.3323 27.1021ZM36.1453 22.6816C33.8555 22.6816 33.6785 25.4917 33.6785 25.4917H38.6066C38.6066 25.4917 38.4337 22.6816 36.1453 22.6816Z" fill="white"/>
</mask>
<g mask="url(#mask11_4232_4741)">
<path fill-rule="evenodd" clip-rule="evenodd" d="M-170.209 74.1951L326.176 74.1951L326.176 -674.882H-170.209L-170.209 74.1951Z" fill="white"/>
<path fill-rule="evenodd" clip-rule="evenodd" d="M24.4229 41.0232H47.6109V13.5798H24.4229V41.0232Z" fill="white"/>
</g>
<mask id="mask12_4232_4741" style="mask-type:alpha" maskUnits="userSpaceOnUse" x="128" y="13" width="24" height="33">
<path d="M128.205 15.9511C128.205 15.0945 138.334 13.2459 145.127 13.2459C148.073 13.2459 150.391 13.5936 150.984 14.5203C154.043 18.823 132.51 45.817 130.716 44.9981C129.277 44.5887 142.196 27.407 140.042 20.4501C138.967 16.7714 128.205 17.1806 128.205 15.9511Z" fill="white"/>
</mask>
<g mask="url(#mask12_4232_4741)">
<path fill-rule="evenodd" clip-rule="evenodd" d="M122.296 51.3113H157.191V6.95124H122.296V51.3113Z" fill="#ED342B"/>
</g>
<mask id="mask13_4232_4741" style="mask-type:alpha" maskUnits="userSpaceOnUse" x="146" y="0" width="10" height="11">
<path d="M146.5 5.31613C146.5 2.37783 148.589 -3.69133e-05 151.164 -3.69133e-05C153.741 -3.69133e-05 155.827 2.37783 155.827 5.31613C155.827 8.25593 153.741 10.6338 151.164 10.6338C148.589 10.6338 146.5 8.25593 146.5 5.31613Z" fill="white"/>
</mask>
<g mask="url(#mask13_4232_4741)">
<path fill-rule="evenodd" clip-rule="evenodd" d="M140.591 16.929H161.736V-6.29485H140.591V16.929Z" fill="#ED342B"/>
</g>
</svg>
