<svg width="131" height="48" viewBox="0 0 131 48" fill="none" xmlns="http://www.w3.org/2000/svg">
<path d="M13.532 18.0516C15.0823 19.1204 16.4675 19.9172 18.4766 20.5797L20.1327 10.8635L14.4688 10.9102L13.532 18.0516ZM12.4894 24.057L10.3711 37.279H15.8609L17.4396 27.3125C15.4898 26.3962 14.3015 26.0626 12.4894 24.057Z" fill="#68AC48"/>
<path d="M30.1824 11.0673L28.5365 21.5335L34.131 20.7777L35.2954 13.0581L35.2966 13.0513L35.3523 12.6813H35.3558L35.6176 11.0673H30.1824Z" fill="url(#paint0_linear_1668_27382)"/>
<path d="M40.8421 11.0673H37.1678L36.8787 12.695L40.5724 12.7314C40.9138 12.7087 44.101 13.1594 43.7492 16.7984C43.6889 17.4244 42.9468 20.0834 42.5985 20.4818C44.3855 20.8164 45.6638 21.0509 46.8407 21.7555C48.251 20.7163 49.3585 18.9986 49.626 17.1752C50.4752 11.5328 45.6137 11.0673 40.8421 11.0673Z" fill="url(#paint1_linear_1668_27382)"/>
<path d="M42.9627 26.9595C43.2826 28.7489 43.4692 29.9657 42.5746 32.1761C41.7141 34.299 38.9629 35.7525 37.6334 35.674L33.1419 35.6626L32.9028 36.991H37.9965C44.7964 37.4315 47.2881 34.9649 48.9818 30.8296C48.3182 29.5422 47.8151 27.6971 42.9627 26.9595Z" fill="url(#paint2_linear_1668_27382)"/>
<path d="M27.4358 28.3447L26.1245 36.9897H31.595L31.8681 35.2414L31.8932 35.0797L33.0075 27.6708L27.4358 28.3447Z" fill="url(#paint3_linear_1668_27382)"/>
<path d="M10 17.4438C10 17.4438 16.7829 22.8107 24.2589 22.8107C31.735 22.8107 32.7844 21.3378 39.5456 21.3378C46.4822 21.3378 49.9698 23.3718 49.3494 29.3055C49.3494 29.3055 48.2112 25.5857 40.9992 25.5857C33.7872 25.5857 32.3769 27.383 25.3061 27.383C18.2353 27.383 12.2469 24.6899 10 17.4438Z" fill="url(#paint4_linear_1668_27382)"/>
<path d="M60.3962 10.4549H62.3506L61.7302 14.8281H66.866L67.4841 10.4549H69.4385L67.8904 21.4311H65.9338L66.6167 16.5912H61.4821L60.7991 21.4311H58.8459L60.3962 10.4549Z" fill="#68AC48"/>
<path d="M72.0918 18.3601C72.061 19.4608 72.8054 20.1278 73.8447 20.1278C74.7746 20.1278 75.4382 19.6942 75.9846 19.1205L77.1786 20.1301C76.1542 21.2001 74.992 21.619 73.8128 21.619C71.5636 21.619 69.9974 20.0527 70.3229 17.7102C70.6484 15.3677 72.6654 13.8026 74.9146 13.8026C76.9931 13.8026 78.2019 15.2607 77.8297 17.8502L77.7682 18.3624L72.0918 18.3601ZM76.0927 16.9635C76.2327 15.8787 75.6283 15.1958 74.465 15.1958C73.3632 15.1958 72.5721 15.8935 72.2773 16.9635H76.0927Z" fill="#68AC48"/>
<path d="M80.1107 13.9833H81.9718L81.817 15.1625H81.8477C82.0944 14.748 82.4442 14.4043 82.8631 14.1649C83.2819 13.9256 83.7556 13.7987 84.238 13.7966C84.4593 13.8 84.6787 13.8364 84.8891 13.9048L84.641 15.7044C84.3538 15.62 84.0569 15.573 83.7577 15.5643C82.0048 15.5643 81.5552 17.0384 81.4926 17.4413L80.9348 21.4252H79.0715L80.1107 13.9833Z" fill="#68AC48"/>
<path d="M86.1754 13.9834H88.0375L86.9983 21.4287H85.1361L86.1754 13.9834ZM87.6016 10.3409C88.2845 10.3409 88.7501 10.8224 88.6568 11.4576C88.5634 12.0927 87.9738 12.5742 87.2909 12.5742C86.6079 12.5742 86.189 12.0472 86.2664 11.4576C86.3244 11.1452 86.4894 10.8629 86.7331 10.659C86.9768 10.4552 87.2839 10.3428 87.6016 10.3409Z" fill="#68AC48"/>
<path d="M89.0904 15.5677L89.3078 13.9855H90.8433L91.1541 11.8296H93.0151L92.7044 13.9832H94.7532L94.5358 15.5654H92.487L92.0317 18.8231C91.9236 19.5675 92.0783 20.0319 92.9002 20.0319C93.2268 20.0319 93.6765 19.9704 93.9394 19.8042L93.7288 21.3682C93.3099 21.5549 92.6429 21.6163 92.2081 21.6163C90.2389 21.6163 89.8975 20.7331 90.1456 18.9802L90.6259 15.5654L89.0904 15.5677Z" fill="#68AC48"/>
<path d="M99.963 20.4066H99.9175C99.2812 21.2444 98.3501 21.6166 97.3576 21.6166C95.978 21.6166 94.7521 20.8574 94.9672 19.3833C95.2928 16.9634 98.1464 16.7938 100.007 16.7938H100.473L100.504 16.5912C100.628 15.6806 99.9926 15.1957 99.0001 15.1957C98.2295 15.2095 97.4861 15.4826 96.8898 15.9708L96.0531 14.9942C96.999 14.1565 98.209 13.8002 99.3871 13.8002C102.567 13.8002 102.241 16.0949 102.102 17.1501L101.496 21.431H99.8242L99.963 20.4066ZM100.18 18.096H99.7923C98.7679 18.096 97.0013 18.1734 96.8465 19.2433C96.7532 19.9263 97.4042 20.2211 98.0087 20.2211C99.2812 20.2211 99.979 19.5541 100.119 18.5137L100.18 18.096Z" fill="#68AC48"/>
<path d="M112.202 13.9834L111.258 20.764C110.886 23.4468 109.335 25.1531 106.435 25.1531C105.054 25.1531 103.844 24.8583 102.915 23.9283L104.244 22.4065C104.896 23.0894 105.61 23.4764 106.648 23.4764C108.448 23.4764 109.161 22.452 109.363 20.9803L109.44 20.4373H109.409C108.758 21.1658 107.75 21.5232 106.819 21.5232C104.585 21.5232 103.361 19.8158 103.656 17.7066C103.965 15.5053 105.578 13.799 107.874 13.799C108.913 13.799 109.828 14.202 110.247 15.1012H110.278L110.433 13.9845L112.202 13.9834ZM105.517 17.6907C105.346 18.8688 106.137 19.8466 107.392 19.8466C108.773 19.8466 109.751 18.9007 109.922 17.66C110.107 16.3726 109.379 15.4722 108.029 15.4722C106.727 15.4745 105.702 16.3737 105.517 17.693V17.6907Z" fill="#68AC48"/>
<path d="M115.195 18.3601C115.163 19.4608 115.908 20.1301 116.949 20.1301C117.88 20.1301 118.543 19.6964 119.09 19.1228L120.282 20.1301C119.258 21.2001 118.095 21.619 116.916 21.619C114.667 21.619 113.101 20.0527 113.426 17.7102C113.752 15.3677 115.769 13.8026 118.018 13.8026C120.096 13.8026 121.305 15.2607 120.933 17.8502L120.872 18.3624L115.195 18.3601ZM119.196 16.9635C119.336 15.8787 118.731 15.1958 117.567 15.1958C116.467 15.1958 115.675 15.8935 115.381 16.9635H119.196Z" fill="#68AC48"/>
<path d="M60.3962 26.4915H64.6772C66.3367 26.4915 67.9348 27.2519 67.6366 29.2529C67.4659 30.4936 66.5815 31.3154 65.4034 31.6569L65.3874 31.6876C66.7533 31.8424 67.5899 32.9283 67.3885 34.3398C67.0629 36.7301 64.8752 37.4722 62.7968 37.4722H58.8459L60.3962 26.4915ZM61.0325 35.7979H62.832C63.8394 35.7979 65.2668 35.6271 65.4682 34.185C65.623 33.0365 64.9412 32.6335 63.3591 32.6335H61.4821L61.0325 35.7979ZM61.7154 30.958H63.4991C64.8024 30.958 65.532 30.4003 65.6549 29.5785C65.779 28.6326 65.1905 28.167 63.7199 28.167H62.1024L61.7154 30.958Z" fill="#68AC48"/>
<path d="M73.518 36.4491H73.4679C72.8327 37.2869 71.9016 37.6591 70.9091 37.6591C69.5284 37.6591 68.3036 36.8988 68.5188 35.4259C68.8443 33.0059 71.6979 32.8352 73.5589 32.8352H74.0245L74.0552 32.6337C74.1793 31.7231 73.5441 31.2382 72.5504 31.2382C71.7802 31.2517 71.037 31.5248 70.4413 32.0134L69.6035 31.0368C70.5505 30.199 71.7605 29.8416 72.9386 29.8416C76.1189 29.8416 75.7922 32.1374 75.6533 33.1926L75.0478 37.4724H73.3791L73.518 36.4491ZM73.7354 34.1385H73.3472C72.3228 34.1385 70.5562 34.2159 70.4014 35.2859C70.3081 35.9688 70.9592 36.2636 71.5636 36.2636C72.8362 36.2636 73.5339 35.5966 73.6739 34.5562L73.7354 34.1385Z" fill="#68AC48"/>
<path d="M78.0937 30.0326H79.8626L79.7066 31.2266H79.7385C80.1722 30.4822 80.9633 29.8459 82.204 29.8459C84.205 29.8459 84.7172 31.2574 84.5146 32.7781L83.8476 37.4768H81.9866L82.5147 33.708C82.6388 32.8862 82.7629 31.5214 81.4596 31.5214C80.2348 31.5214 79.6292 32.4207 79.4904 33.4132L78.9212 37.4768H77.0545L78.0937 30.0326Z" fill="#68AC48"/>
<path d="M87.6016 25.747H89.4626L88.4234 33.1149L91.7243 30.0279H94.1147L90.4541 33.4086L93.2769 37.4721H90.8126L88.379 33.6749H88.3483L87.8213 37.4744H85.958L87.6016 25.747Z" fill="#68AC48"/>
<defs>
<linearGradient id="paint0_linear_1668_27382" x1="48.4691" y1="20.264" x2="52.1205" y2="49.1732" gradientUnits="userSpaceOnUse">
<stop offset="0.76" stop-color="#68AC48"/>
<stop offset="0.78" stop-color="#6EAF4F"/>
<stop offset="0.81" stop-color="#7FB863"/>
<stop offset="0.84" stop-color="#9CC784"/>
<stop offset="0.88" stop-color="#C3DBB1"/>
<stop offset="0.89" stop-color="#CFE1BF"/>
<stop offset="0.91" stop-color="#A4C6A2"/>
<stop offset="0.93" stop-color="#4E9066"/>
<stop offset="0.95" stop-color="#176D41"/>
<stop offset="0.96" stop-color="#026032"/>
</linearGradient>
<linearGradient id="paint1_linear_1668_27382" x1="33416.6" y1="11034.9" x2="34107.8" y2="14737.1" gradientUnits="userSpaceOnUse">
<stop offset="0.76" stop-color="#68AC48"/>
<stop offset="0.78" stop-color="#6EAF4F"/>
<stop offset="0.81" stop-color="#7FB863"/>
<stop offset="0.84" stop-color="#9CC784"/>
<stop offset="0.88" stop-color="#C3DBB1"/>
<stop offset="0.89" stop-color="#CFE1BF"/>
<stop offset="0.91" stop-color="#A4C6A2"/>
<stop offset="0.93" stop-color="#4E9066"/>
<stop offset="0.95" stop-color="#176D41"/>
<stop offset="0.96" stop-color="#026032"/>
</linearGradient>
<linearGradient id="paint2_linear_1668_27382" x1="50.7744" y1="45.6673" x2="55.7916" y2="7.31894" gradientUnits="userSpaceOnUse">
<stop offset="0.22" stop-color="#68AC48"/>
<stop offset="0.33" stop-color="#63A847"/>
<stop offset="0.46" stop-color="#559E44"/>
<stop offset="0.59" stop-color="#3E8C3F"/>
<stop offset="0.73" stop-color="#1D7438"/>
<stop offset="0.83" stop-color="#026032"/>
</linearGradient>
<linearGradient id="paint3_linear_1668_27382" x1="19762.5" y1="15439.9" x2="20215" y2="17863.7" gradientUnits="userSpaceOnUse">
<stop offset="0.76" stop-color="#68AC48"/>
<stop offset="0.78" stop-color="#6EAF4F"/>
<stop offset="0.81" stop-color="#7FB863"/>
<stop offset="0.84" stop-color="#9CC784"/>
<stop offset="0.88" stop-color="#C3DBB1"/>
<stop offset="0.89" stop-color="#CFE1BF"/>
<stop offset="0.91" stop-color="#A4C6A2"/>
<stop offset="0.93" stop-color="#4E9066"/>
<stop offset="0.95" stop-color="#176D41"/>
<stop offset="0.96" stop-color="#026032"/>
</linearGradient>
<linearGradient id="paint4_linear_1668_27382" x1="1387.51" y1="13518.6" x2="39829" y2="13518.6" gradientUnits="userSpaceOnUse">
<stop offset="0.76" stop-color="#68AC48"/>
<stop offset="0.78" stop-color="#6EAF4F"/>
<stop offset="0.81" stop-color="#7FB863"/>
<stop offset="0.84" stop-color="#9CC784"/>
<stop offset="0.88" stop-color="#C3DBB1"/>
<stop offset="0.89" stop-color="#CFE1BF"/>
<stop offset="0.91" stop-color="#A4C6A2"/>
<stop offset="0.93" stop-color="#4E9066"/>
<stop offset="0.95" stop-color="#176D41"/>
<stop offset="0.96" stop-color="#026032"/>
</linearGradient>
</defs>
</svg>
